<svg xmlns="http://www.w3.org/2000/svg" xmlns:xlink="http://www.w3.org/1999/xlink" version="1.1" id="Layer_1" x="0px" y="0px" width="88.442px" height="104.539px" viewBox="0 0 88.442 104.539" enable-background="new 0 0 88.442 104.539" xml:space="preserve">
<g>
	<path fill-rule="evenodd" clip-rule="evenodd" fill="#3C3C3E" d="M20.362 20.961c0 0 0.1 1 0.1 2.1 c0 1 1.6 0.4 1.6 0.448l0.3 5.391l0.449 1.797l-1.048 0.449l0.15-3.444l-0.449-2.245l-0.449-1.049l-1.198-0.149 l-0.45-1.946l-0.299-1.198l-0.898-1.348l-1.498-1.197l0.449-1.048l-0.749-1.198l-1.347 0.599h-2.546l1.348-0.897l2.246-1.647 l-2.096 0.749h-2.246l-0.449 1.497l-3.743-0.15L4.641 15.87l-2.844-1.197L0 13.325h2.096l2.396 0.898l1.796 0.898l2.695-0.449 l-0.15-0.898l-0.599-1.797V10.48l2.246-1.048L7.936 9.283l0.299-1.498l1.796-1.796l2.995 0.897l1.198 0.3l1.048-1.048l-1.796-1.647 l0.299-1.197l0.749-1.497l2.396 1.197L16.17 4.042l1.497 1.647V2.694L18.715 0l1.348 1.048l3.444 0.599l1.497 2.396l1.498 2.8 l1.497 2.546l-8.235 10.93L20.362 20.961L20.362 20.961z"/>
	<path fill-rule="evenodd" clip-rule="evenodd" fill="#3C3C3E" d="M28.521 9.883l-8.212 10.292l0.624 0.728v1.663l1.767 0.6 l0.104 5.613l0.52 1.56l-0.312 1.559l-1.144 0.313l-0.312 1.039l0.728 0.832l-0.728 0.936l0.728 1.144l-0.624 0.832l0.832 1.2 c0 0 2.4 1.8 2.3 2.287c-0.104 0.521-0.208 1.768-0.208 1.768s5.821 1.6 6.8 1.871c0.936 0.3 11.9 2.4 12.8 2.2 s7.693 0.7 8.5 0.728s1.768 0.4 1.8 0.416s1.455-1.247 2.183-1.352c0.728-0.104 1.7 0.7 1.7 0.728l1.248 0.7 l0.52 1.143c0 0 0.4 0.4 1.1 0.416c0.728 0 2.6 0.1 3 0.728c0.416 0.6 1.2 1.4 0.6 1.4 c-0.624 0-1.767-0.728-1.767-0.728l0.416 1.975l-0.624 1.248c-0.52 1.039-1.247 1.871-0.624 1.871c0.624 0 2.599-1.871 2.599-1.871 l1.56-0.52l-0.643-0.748l0.614-0.636l2.107-0.176c0 0 0.208-1.663 1.04-1.871c0.832-0.208 3.327-1.144 3.327-1.144 s0.936-1.248 0.832-1.768s-0.074-2.574 0.416-2.391l1.664 0.624l1.144 2.495l1.663-1.56l1.56-0.52l-1.456 1.767l0.104 1.1 c0 0 0.8 0.9 0.9 0.416c0.104-0.52 0.52-1.976 0.52-1.976l1.872-1.975c0 0 1.039-0.52 1.039-1.144s-1.039-1.455-1.039-1.455 l-0.832 2.286c0 0-1.559 0.521-2.079 0.104c-0.52-0.415-1.351-1.351-1.351-1.351l-1.456-0.208l1.456-1.56l-1.768-0.831 l-2.183 2.287c0 0-0.52-1.352 0.312-1.768c0.832-0.416 0.624-1.04 1.248-1.455c0.624-0.416 3.015-1.455 3.535-1.56 s1.455-0.104 1.455-1.04s1.664-2.286 1.664-2.286s0-1.04-0.208-1.664c-0.208-0.623-1.144-1.975-1.144-1.975l-1.455 0.5 l-1.145 1.871c0 0-0.624-0.52-0.104-1.247c0.519-0.728 1.456-1.455 0.936-1.871s-2.391 0.416-2.911 0 c-0.52-0.416-1.247-0.832-1.455-1.455c-0.208-0.625-2.495-1.664-3.015-2.184c-0.52-0.52-1.455-1.768-1.144-0.728 c0.312 1.039-0.208 3.015-0.208 3.015s-1.975 0-2.391-1.145c-0.415-1.143-0.52-1.454-1.559-1.87s-2.703-0.728-3.222-0.728 c-0.521 0-2.08 0.104-2.08 0.104s0.728 0.5 0.8 1.352s0.104 2 0.1 1.976l-0.104 1.351c0 0-0.728 0.3 0.2 0.8 s1.248 1.6 1.6 2.183c0.312 0.6 0.6 1.9 0 2.287c-0.624 0.416-1.663 0.52-1.04 1.56c0.625 1 0.7 1.9 0.9 2.5 c0.208 0.6 0.8 1.8 0.1 1.975c-0.728 0.209-1.143 1.248-1.559 0.209c-0.416-1.04-1.352-0.937-1.248-2.184 s-0.52-2.702-0.52-2.702s-1.04-0.209-1.871-0.209c-0.832 0-2.496-0.104-3.223-0.728c-0.728-0.623-0.312-1.144-1.248-1.247 c-0.936-0.104-1.559 0.104-1.559 0.104s-0.417 0-0.417-1.039c0-1.04-1.351-1.976-1.351-1.976s-0.624-0.936-0.208-2.079 s1.143-3.015 1.663-3.326c0.52-0.313 0-0.313-0.416-0.936c-0.416-0.624 1.767-0.313 1.767-0.313s-0.104-0.728 0.416-0.936 c0.52-0.208 0.52-1.143 0.52-1.143s-2.391-0.624-1.351-0.833c1.04-0.207 2.3 0.2 2.287-0.52c0-0.728 0.104-0.936 0.832-0.728 c0.727 0.2 0.936-0.104 0.936-0.831c0-0.729 0.208-2.079 0.208-2.079l-1.248-1.456c0 0-1.768-1.247-1.559-0.415 c0.208 0.8 0.5 1.9 0.3 2.391s-0.832 0.208-0.832 0.208l-0.832-0.936l-1.455-1.56c0 0 0.104-0.208-0.208-0.936 c-0.312-0.729-1.143-1.663-1.143-1.663s-0.624-0.624-0.104-1.039c0.52-0.416 1.247-0.313 1.247-0.832 c0-0.521-1.247-1.04-1.247-1.04l-1.04 1.144l0.312 2.495l0.104 2.703l0.52 1.559l-1.351-0.208l-0.832 0.729l-2.703-0.416 l-1.456-1.248l-1.247 0.416l0.416 1.144l-0.52 0.416c0 0-1.04-0.936-1.56-0.936c-0.519 0-1.975-1.144-1.975-1.144l0.104-1.039 l-2.911-2.6l-2.079-1.247l-1.768-0.52l-1.559 0.312l-1.144-0.208C29.457 12.2 28.8 10 28.5 9.883L28.521 9.883z"/>
	<path fill-rule="evenodd" clip-rule="evenodd" fill="#3C3C3E" d="M83.098 34.208c0 0-1.247-0.728-0.832 0.9 c0.416 1.7 0.4 2.7 0.3 3.431c-0.104 0.728-1.04 1.039-0.52 1.455s-0.208 2.2 0.7 1.4 c0.936-0.831 1.352-1.455 2.183-1.662c0.832-0.209-0.312 0.8 0.3 0.728c0.624-0.104 0.936-0.313 1.248-0.832 c0.312-0.52 0.208-0.208 0.832-0.104c0.624 0.1 0.6 0.7 0.9 0c0.312-0.728 0.104-0.831-0.416-1.143 c-0.52-0.313-0.52-0.624-0.52-1.248c0-0.623-0.728-1.247-1.248-0.728c-0.52 0.5 0-0.208-1.04 0.1 c-1.04 0.312-1.352-0.313-1.352-0.313L83.41 35.04L83.098 34.208L83.098 34.208z"/>
	<path fill-rule="evenodd" clip-rule="evenodd" fill="#3C3C3E" d="M19.685 31.609c0 0.624-0.208 1.455-0.104 2.1 c0.104 0.6 0.6 0.2 0.831-0.728c0.208-0.936 0.521-1.144 0.521-1.144S19.685 31.2 19.7 31.609L19.685 31.609z"/>
	<path fill-rule="evenodd" clip-rule="evenodd" fill="#3C3C3E" d="M21.037 38.158c0.312 0.8 1 1 1.1 2 c0.104 0.9 0.9 0.2 0.9 0.937c0 0.7 0.5 2 0.7 1.143c0.208-0.832-0.312-1.247-0.728-2.079 c-0.416-0.831-0.104-0.52-0.936-1.352C21.348 38 20.9 37.7 21 38.158L21.037 38.158z"/>
	<path fill-rule="evenodd" clip-rule="evenodd" fill="#3C3C3E" d="M8.562 17.472c-0.52 0.104-1.871 0.728-0.52 0.8 c1.351 0.1 1.6 0.1 2.2 0c0.624-0.104 0.936-0.521 0.312-0.832C9.913 17.2 8.7 17.4 8.6 17.472L8.562 17.472z"/>
	<path fill-rule="evenodd" clip-rule="evenodd" fill="#3C3C3E" d="M9.913 1.15c0.104 0.7 0.3 2 0.3 2 s0.728 1.2 0.8 0.624c0.104-0.624 0-0.832 0-1.456S10.017 0.9 9.9 1.15L9.913 1.15z"/>
	<path fill-rule="evenodd" clip-rule="evenodd" fill="#3C3C3E" d="M6.691 6.452c0.104 0.832-0.208 1.5 0.4 1.5 S7.938 8.5 7.8 7.7C7.73 6.9 7.9 7 7.4 6.66S6.691 6.2 6.7 6.452L6.691 6.452z"/>
	<path fill-rule="evenodd" clip-rule="evenodd" fill="#3C3C3E" d="M24.675 42.837c0 0.831-0.104 1.87-0.417 1.2 c-0.311-0.624 0.417-1.143-0.208-1.247c-0.624-0.104-1.248-0.416-1.248-0.416s-0.208 0.208-0.104 1.5 c0.104 1.2 0.2 1.767-0.312 2.391c-0.52 0.623-1.351 1.663-1.351 2.494c0 0.832-0.208 0.416-0.624 1.2 c-0.416 0.831-0.104 1.871-0.623 2.807s-0.416 0.416-0.416 1.975c0 1.561-0.104 2.7 0.4 2.703s1.144-0.831 0.935-0.104 c-0.208 0.728-0.831 0.728-0.831 0.728l0.208 1.455c0 0 0.6 0.8 0.5 1.663c-0.104 0.8 0 0.9 0.9 1.8 c0.936 0.8 2.2 1.8 2.1 2.6c-0.104 0.831-0.416 1.5 0.5 1.144c0.936-0.313 2.7 0.7 3.7 1.2 c1.037 0.5 2.4 1.8 3.1 1.966c0.424 0.1 0.8 0.3 1.3 0.401c0.364 0.1 0.766-0.023 1.229-0.023 c1.023 0 0.365-0.398 1.603-0.455c1.239-0.057 1.4 0.9 2.2 1.317c0.774 0.4 0.7 1.3 1.1 2 c0.401 0.7 1 1.5 1.4 1.538c0.337 0 0.344-1.551 0.929-1.549c0.586 0 2 0 2.1 1.1 c0.181 1.1 0.4 1.1 0.8 2.078c0.335 1 0.9 1.9 1.9 2.297c0.936 0.4 2.1 1.2 1.8 0.5 c-0.313-0.728-0.52-1.248 0-2.079c0.52-0.832 0.52-1.456 1.04-1.56c0.52-0.104 0.6 0.5 0.936-0.312 c0.312-0.831 0.728-1.768 0.728-1.768s0.625 0.7 1.5 0.521c0.833-0.208 1.976-0.104 1.976-0.104s0.52 0 1.2 0.4 s1.663 0 1.7 0s1.352 1 1.1 0.416c-0.208-0.624-1.247-1.04-1.247-1.04l0.416-0.728c0 0-2.184 0.208-1.456-0.208 c0.728-0.416 2.391-0.832 2.599-0.313c0.208 0.5 0.936-0.312 0.936-0.312l1.663 0.312c0 0 0.4 0.7 1.1 0.6 c0.727-0.104 0.104-1.04 1.247-0.625c1.144 0.4 2.2 0.5 1.9 1.04c-0.312 0.5 0.5 3 0.5 3 s1.248 0.8 1.6 1.352s0.832 1 0.8 1.04l0.208 0.623c0 0 0.832-0.207 0.832-0.936c0-0.728 0.208-1.56-0.104-2.287 c-0.312-0.728-0.832-2.079-1.143-2.91c-0.312-0.832-1.872-1.144-1.352-1.871c0.52-0.728 0.624-1.768 0.624-2.288 c0-0.52-0.936-0.727-0.104-0.831c0.833-0.104 1.04-0.104 1.352-0.624c0.312-0.52 0.728-1.455 1.56-2.078 c0.832-0.625 1.455-1.144 1.455-1.144s0.104-0.313 0.624-0.832c0.52-0.52-1.664-0.104-0.832-0.313 c0.832-0.207 1.663-0.623 1.143-0.728c-0.52-0.104-1.663 0.521-1.143 0c0.52-0.52 0.312-0.936 0.312-0.936l-0.416-1.663 l-0.936-1.663l0.832-0.416l0.104 1.352l0.416 1.144c0.52-0.312 0.936-1.144 0.728-1.663c-0.208-0.521-1.144-0.832-0.624-0.832 c0.52 0 0.8 0.1 0.832-0.416c0-0.52 0-1.352 0.52-1.663s1.352-1.352 1.352-1.352s-2.911 0.936-1.976 0.4 c0.936-0.52 2.391-1.04 2.391-1.04h1.248c0 0-0.208-0.831-0.728-1.352c-0.52-0.52-0.104-0.727 0.312-1.663 c0.416-0.936 1.559-1.871 1.559-1.871s0.936-0.831 0.104-1.144c-0.832-0.312-1.352-1.352-1.455-1.871 c-0.104-0.52-1.144-0.623-1.144-0.623l-0.104 2.287l-1.559 2.183c0 0-3.119 0.52-3.223 1.039c-0.104 0.5 0.3 1.248-0.312 1.5 c-0.624 0.207-1.768 0.52-1.768 0.52l-1.04 1.247l-1.351 1.248l-1.663 0.935c0 0-1.56 0.105-1.352-0.623 c0.208-0.728 0.832-2.183 0.832-2.183l-0.832-0.937c0 0-0.104 0.104-0.416-0.831c-0.312-0.936-0.416-1.144-1.04-1.04 c-0.624 0.104-1.04 0-1.248 0.624s-0.208 1.144-0.208 1.872c0 0.7 0.1 1.8 0.1 2.286c0 0.521-1.248 0.937-1.248 0.9 S57.005 56.2 57.1 55c0.104-1.248-0.416-2.496 0.311-3.223c0.729-0.729 0.937-1.352 1.664-1.664 c0.728-0.312 1.4 0 0.936-0.52c-0.417-0.52-0.936-0.728-1.663-0.208c-0.728 0.52-1.872 1.247-1.768 0.3 c0.104-0.937 0.312-1.976-0.208-1.456s-1.767 1.04-1.767 1.04s-2.08 0.312-1.144-0.208c0.936-0.52 1.144-1.04 1.144-1.04 s-3.224-0.728-3.743-0.728c-0.52 0-4.366-0.208-5.198-0.208c-0.832 0-7.069-0.728-8.004-0.936s-8.524-1.871-8.524-1.871 L24.675 42.837L24.675 42.837z"/>
	<path fill-rule="evenodd" clip-rule="evenodd" fill="#3C3C3E" d="M24.019 67.373c0.163 0.9 0.9 1.7 0.7 2.2 c-0.243 0.487-0.162 1.4 0.4 1.786c0.568 0.4 2 1.7 1.6 2.193c-0.406 0.487-0.73 0.325-1.218 0.2 c-0.488-0.081-0.163 0.6 0.2 1.137c0.406 0.5 1.4 1.1 1.4 1.056s0.325 0.4 0.7 0.7 c0.406 0.3 0.6 0.7 0.3 1.057c-0.244 0.405-0.162 0.812-0.162 0.812s1.543 1.9 1.9 2.518s-0.243 1.1 0.4 1 c0.649-0.162 1.38-0.243 0.813-1.137c-0.569-0.894-0.894-0.406-1.056-0.975c-0.163-0.568 0.325-1.219 0-1.706 c-0.325-0.486-0.975 0-0.813-0.649c0.163-0.649 0.65-1.218 0-1.299c-0.649-0.082-0.649-0.082-0.812-0.813 c-0.163-0.731-0.325-1.543-0.569-2.111c-0.244-0.569 0.081-0.731-0.406-1.218c-0.487-0.488-0.975-0.326-0.893-1.057 c0.081-0.73 0.162-1.543 0.162-2.111c0-0.569 0.731-0.325 1.1 0.162s0.974 0.4 0.7 1.4 c-0.244 1 0.6 2.8 0.6 2.843l1.219 1.624c0 0-0.325 0.6 0.3 0.894c0.65 0.3 1.5 0.7 1.3 1.2 s-0.974 0.487-0.163 0.975c0.813 0.5 2.1 1.2 1.8 1.624c-0.325 0.406-0.325 0.3 0.3 1 c0.65 0.7 1.1 0.8 1.4 1.462c0.326 0.7 1 0.9 1 1.381c0 0.5 0.2 1 0 1.6 c-0.163 0.649-0.487 0.731-0.406 1.381c0.082 0.7 0.2 0.8 1.1 1.3s1.625 1.1 1.7 1.5 c0.082 0.4 1 0.5 1.5 0.73c0.568 0.2 1.7 1.2 2.6 1.625c0.894 0.4 3.3 1 3.8 1.3 c0.487 0.3 0.9 0.9 1.9 0.567c1.056-0.324 1.462-0.73 2.274-0.486c0.813 0.2 2 0.4 2.4 1.1 s0.731 1.1 1.1 0.244c0.325-0.813-0.406-1.544 0.487-1.544s1.137 0.6 1.137-0.081c0-0.731-1.461-1.299-0.893-1.543 s0-0.731 0.65-0.894s1.218 0 1.868-0.081c0.649-0.081 0.877-0.046 1.039-0.695c0.163-0.65 0.828-1.173 0.828-0.441 c0 0.73-0.081 1.6 0.2 0.568c0.326-1.056-0.162-1.949 0.163-2.518c0.325-0.569 0.649-0.325 0.894-0.975 c0.244-0.65 0.244-1.543-0.65-1.381c-0.893 0.162-1.38-0.487-2.03-0.081c-0.649 0.405-1.38 0.243-1.705 0.9 c-0.325 0.649-0.569 0.324-0.894 1.624c-0.325 1.299-0.325 1.868-0.813 2.03c-0.487 0.162-0.406-0.487-1.056-0.325 c-0.649 0.163-1.056 0.487-1.462 0.65c-0.406 0.162-1.137 0.324-1.542 0.081c-0.407-0.244-1.543-0.568-1.543-0.568 s-0.244-0.163-0.731-0.975c-0.487-0.813-0.244-0.975-0.731-1.544c-0.487-0.568-1.218-0.812-0.569-1.056 c0.65-0.243-0.406-0.812-0.406-0.812s-0.568-1.219-0.487-2.03c0.081-0.813-0.406-1.543 0.325-1.868 c0.73-0.325 1.38-0.813 0.893-1.056c-0.487-0.244-2.437-0.975-2.924-1.544c-0.487-0.567-1.137-1.543-1.38-2.354 c-0.244-0.813-0.487-1.949-0.975-2.03s-1.462-0.65-1.543-0.081c-0.081 0.568-0.568 1.461-0.975 1.2 c-0.406-0.244-0.893-0.73-1.462-1.624c-0.568-0.894-0.406-1.462-0.974-1.787c-0.569-0.325-0.65-0.975-1.218-1.218 c-0.569-0.244-0.975-0.244-1.462-0.081c-0.487 0.162-2.355 0.487-2.843 0.162c-0.487-0.325-1.299-0.325-1.706-0.73 c-0.406-0.406-1.949-1.219-2.599-1.706c-0.649-0.487-2.192-0.731-2.599-0.813C24.263 67.2 24.1 67.4 24 67.4 L24.019 67.373z"/>
	<path fill-rule="evenodd" clip-rule="evenodd" fill="#3C3C3E" d="M57.398 90.764c-0.813 0-1.462 0.081-1.462 0.1 c-1.406 0.2 1.2 2.4 0.3 2.536l-0.913 0.144c0 0-0.568-0.568-0.65 0.244c-0.081 0.8 0.3 1.313-0.251 1.3 c-0.568 0 0.2 0.6 0.8 0.798c0.649 0.2 1.8 0.7 1.83-0.011c0-0.73 0.119-0.477 0.688-0.882 c0.568-0.407 0.975-0.894 1.056-1.382c0.081-0.486-0.65-0.081-0.813-0.73c-0.162-0.649-0.081-1.137-0.081-1.624 C57.921 90.7 57.6 90.3 57.4 90.764L57.398 90.764z"/>
	<path fill-rule="evenodd" clip-rule="evenodd" fill="#3C3C3E" d="M58.843 89.491c-0.208 0.357-0.238 0.863-0.476 1 c-0.238 0.09-0.268-0.297-0.327 0.06c-0.06 0.4 0 0.269-0.03 0.893c-0.03 0.6 0.1 0.9 0.1 1.2 c0 0.237-0.03 0.7 0.2 0.416c0.238-0.297-0.119-0.387 0.327-0.535s0.476 0.3 0.446-0.387 c-0.03-0.654-0.328-0.625-0.089-1.249s0.446-0.922 0.208-1.189C58.933 89.3 58.8 89.5 58.8 89.491L58.843 89.491z"/>
	<path fill-rule="evenodd" clip-rule="evenodd" fill="#3C3C3E" d="M58.962 93.596c-0.089 0.328-0.268 0.863-0.565 1.1 c-0.297 0.237-0.981 0.029-0.446 0.386c0.535 0.4 0.7 0.2 1.2 0.447c0.565 0.2 1 0 1.1 0.5 c0.149 0.505-0.327 0.9 0.2 0.803c0.536-0.089 0.3 0.1 0.833-0.506c0.535-0.654 0.356-0.654 1.189-0.772 c0.833-0.12 0.655-0.238 1.041-0.744c0.387-0.506 0.03-0.773 0.714-0.684c0.684 0.1 0.8 0.1 1.16-0.179 c0.387-0.298 1.249-0.417 0.387-0.744c-0.862-0.326-0.179-0.326-1.457-0.535c-1.279-0.208-1.279-0.119-2.053 0.2 c-0.773 0.326-0.952 0.147-1.844 0.089C59.617 92.9 58.9 93.5 59 93.596L58.962 93.596z"/>
	<path fill-rule="evenodd" clip-rule="evenodd" fill="#3C3C3E" d="M58.605 95.708c-0.387-0.178-0.446-0.625-0.744-0.387 c-0.297 0.238-0.148 0.416-0.446 0.625c-0.297 0.208-0.714 0.595-0.179 0.535c0.536-0.06 0.684-0.297 1 0 c0.268 0.3 0.6 0.4 1 0.386c0.387-0.029 0.5 0.2 0.714-0.089c0.208-0.268 0.357-0.268 0.179-0.595 c-0.179-0.327 0.297-0.268-0.327-0.356C59.081 95.8 58.6 95.7 58.6 95.708L58.605 95.708z"/>
	<path fill-rule="evenodd" clip-rule="evenodd" fill="#3C3C3E" d="M60.747 97.047c0.714-0.149 1.041-0.357 1.19-0.714 c0.148-0.357-0.03-0.446 0.595-0.535c0.624-0.09 1.07-0.179 1.189-0.536c0.119-0.356-0.119-0.743 0.416-0.803 c0.536-0.06 1 0.1 1.369-0.089c0.417-0.208 1.041-0.982 0.922-0.446c-0.119 0.535-0.386 1.934-0.386 3.1 s-0.179 2.409-0.179 2.409s-0.446 0.06-1.22 0.06c-0.773 0-1.249 0.148-1.487 0.089c-0.238-0.06-0.118-0.148-0.654-0.684 s-1.279-1.16-1.517-1.369C60.747 97.3 60.8 97 60.7 97.047L60.747 97.047z"/>
	<path fill-rule="evenodd" clip-rule="evenodd" fill="#3C3C3E" d="M63.128 99.675c0.188 0 0.733-0.021 1.004-0.042 c0.272-0.021 1.821-0.021 1.821-0.021s0.44 0.4 0.6 0.732c0.167 0.3 1 0.7 1 0.732s0.147 0.043-0.042 0.4 c-0.188 0.377-0.063 0.5 0.1 0.628c0.126 0.126-0.104-0.021-0.146 0.482c-0.042 0.502-0.126 0.397-0.523 0.2 s-0.272 0.481-0.523 0.021c-0.251-0.461-0.125-0.796-0.544-0.9c-0.418-0.104-0.397 0.084-0.774-0.167 c-0.377-0.252-0.648-1.026-0.837-0.88c-0.188 0.1 0.4 0.607-0.021 0.607c-0.418 0-0.083-0.293-0.544-0.377 c-0.46-0.084-0.733 0.23-0.733-0.251S63.107 99.7 63.1 99.675L63.128 99.675z"/>
	<path fill-rule="evenodd" clip-rule="evenodd" fill="#3C3C3E" d="M67.754 101.413c-0.063 0.209-0.293 0.272-0.104 0.4 c0.188 0.1 0.3 0.3 0.2 0.419c-0.125 0.125-0.209 0.146-0.23 0.397s-0.398 0.796-0.167 0.712s0.105-0.335 0.753-0.293 c0.649 0 1.277-0.147 1.2 0.229c-0.042 0.378-0.021 0.5 0.3 0.587c0.293 0.1 0.293-0.356 0.524-0.293 c0.231 0.1 0.4 0.3 0.3 0.628c-0.083 0.4 0.4 0.4 0.5 0.313c0.147-0.063 0.356-0.125 0.46-0.376 c0.105-0.252-0.23-0.67-0.292-0.942c-0.063-0.272-0.189-0.335 0.292-0.544c0.482-0.21 0.544-0.439 0.733-0.67 c0.188-0.231-0.021-0.335 0.334-0.419c0.356-0.084 0.44-0.188 0.8 0.021c0.377 0.2 0.5 0.4 0.9 0.4 s0.293 0.2 0.1 0.335s-0.439-0.063-0.251 0.461c0.188 0.5 0.5 0.8 0.7 0.837c0.167 0.042-0.021-0.042 0.293-0.314 c0.314-0.271 0.544-0.376 0.67-0.649c0.126-0.271 0.042-0.208-0.251-0.648c-0.292-0.439-0.125-0.648-0.67-0.984 c-0.544-0.334-0.879-0.146-1.34-0.292c-0.46-0.146-0.774-0.335-1.068-0.168c-0.293 0.168-0.565 0.084-0.648 0.4 c-0.084 0.356-0.712 0.272-0.942 0.503c-0.23 0.229-0.293 0.523-0.607 0.565c-0.314 0.041-0.335 0.104-0.712 0 c-0.377-0.104-0.837-0.146-1.005-0.272C68.32 101.7 67.8 101.4 67.8 101.413L67.754 101.413z"/>
	<path fill-rule="evenodd" clip-rule="evenodd" fill="#3C3C3E" d="M79.283 39.631c0 0-1.662-0.439-2.149-0.033 c-0.488 0.406-0.081 0.5 0.5 0.568c0.568 0.1 0.4 0.5 1 0.163C79.165 40 79.2 40.2 79.3 39.6 L79.283 39.631z"/>
	<path fill-rule="evenodd" clip-rule="evenodd" fill="#3C3C3E" d="M78.758 43.253c0.569 0.6 0.7 1.1 1.1 1 c0.487-0.162 0.7 0.3 0.894-0.162c0.243-0.486 0.162-0.812-0.406-0.568c-0.568 0.244-0.568 0.082-0.975-0.081 C78.872 42.2 78.7 43.1 78.8 43.253L78.758 43.253z"/>
	<path fill-rule="evenodd" clip-rule="evenodd" fill="#3C3C3E" d="M61.865 34.319c-0.406 0.324-1.542 0.73-0.649 0.9 c0.894 0.2 0.8 0.1 1.218-0.081S62.352 34.3 61.9 34.319L61.865 34.319z"/>
	<path fill-rule="evenodd" clip-rule="evenodd" fill="#3C3C3E" d="M61.167 39.593l0.383 0.526l0.314-0.034 c0 0 0.487-0.812-0.081-0.894C61.215 39.1 61.3 39.5 61.2 39.593L61.167 39.593z"/>
</g>
</svg>
